<!--!Font Awesome Free 6.7.2 by @fontawesome - https://fontawesome.com License - https://fontawesome.com/license/free Copyright 2025 Fonticons, Inc.-->

<svg xmlns="http://www.w3.org/2000/svg" > 
<symbol id="icon-next" viewBox="0 0 512 512">
<path d="M52.5 440.6c-9.5 7.9-22.8 9.7-34.1 4.4S0 428.4 0 416L0 96C0 83.6 7.2 72.3 18.4 67s24.5-3.6 34.1 4.4L224 214.3l0 41.7 0 41.7L52.5 440.6zM256 352l0-96 0-128 0-32c0-12.4 7.2-23.7 18.4-29s24.5-3.6 34.1 4.4l192 160c7.3 6.1 11.5 15.1 11.5 24.6s-4.2 18.5-11.5 24.6l-192 160c-9.5 7.9-22.8 9.7-34.1 4.4s-18.4-16.6-18.4-29l0-64z"/>
</symbol>
<symbol id="icon-cross" viewBox="0 0 384 512">
<path d="M342.6 150.6c12.5-12.5 12.5-32.8 0-45.3s-32.8-12.5-45.3 0L192 210.7 86.6 105.4c-12.5-12.5-32.8-12.5-45.3 0s-12.5 32.8 0 45.3L146.7 256 41.4 361.4c-12.5 12.5-12.5 32.8 0 45.3s32.8 12.5 45.3 0L192 301.3 297.4 406.6c12.5 12.5 32.8 12.5 45.3 0s12.5-32.8 0-45.3L237.3 256 342.6 150.6z"/>
</symbol>
<symbol id="icon-tick" viewBox="0 0 448 512">
<path d="M438.6 105.4c12.5 12.5 12.5 32.8 0 45.3l-256 256c-12.5 12.5-32.8 12.5-45.3 0l-128-128c-12.5-12.5-12.5-32.8 0-45.3s32.8-12.5 45.3 0L160 338.7 393.4 105.4c12.5-12.5 32.8-12.5 45.3 0z"/>
</symbol>
</svg>